<?xml version="1.0" encoding="UTF-8"?>
<svg id="Layer_1" data-name="Layer 1" xmlns="http://www.w3.org/2000/svg" xmlns:xlink="http://www.w3.org/1999/xlink" viewBox="0 0 245.76 245.76">
  <defs>
    <style>
      .cls-1 { fill: #21211b; }
      .cls-2 { fill: #cdbcbb; }
      .cls-3 { fill: url(#linear-gradient-2); }
      .cls-4 { fill: #987ea6; }
      .cls-5 { fill: #9275c8; }
      .cls-6 { fill: #7e6d62; }
      .cls-7 { fill: #af9996; }
      .cls-8 { fill: #c9b3cf; }
      .cls-9 { fill: #7f562d; }
      .cls-10 { fill: #e3e0d0; }
      .cls-11 { fill: #bba8bd; }
      .cls-12 { fill: #725359; }
      .cls-13 { fill: #ac89cb; }
      .cls-14 { fill: #866ea8; }
      .cls-15 { fill: #9f998f; }
      .cls-16 { fill: #806396; }
      .cls-17 { fill: #f3edde; }
      .cls-18 { fill: url(#linear-gradient); }
      .cls-19 { fill: #4c3725; }
    </style>
    <linearGradient id="linear-gradient" x1="475.07" y1="887.67" x2="553.92" y2="950.42" gradientTransform="translate(41.76 -130.56) scale(.24)" gradientUnits="userSpaceOnUse">
      <stop offset="0" stop-color="#352c21"/>
      <stop offset=".38" stop-color="#423222"/>
      <stop offset="1" stop-color="#86592b"/>
    </linearGradient>
    <linearGradient id="linear-gradient-2" x1="337.42" y1="818.66" x2="337.99" y2="922.57" gradientTransform="translate(41.76 -130.56) scale(.24)" gradientUnits="userSpaceOnUse">
      <stop offset="0" stop-color="#cdb1db"/>
      <stop offset="1" stop-color="#a47fcb"/>
    </linearGradient>
  </defs>
  <rect class="cls-1" width="245.76" height="245.76"/>
  <g>
    <g>
      <path class="cls-17" d="M105.77,175.81c-8.68,0-14.53-7.7-14.82-15.88-.37-10.56-3.17-20.39-8.99-29.1l-7.88-11.8c-3.52-5.27-6.94-10.29-9.56-16.1-14.57-32.26.16-69.43,31.62-84.05,24.48-11.37,53.27-5.89,72.08,13.11,21.42,21.63,24.87,55.13,7.82,80.49l-10.41,15.49c-6.6,9.82-10.54,20.41-10.9,32.38-.24,7.88-6.29,15.44-14.45,15.44l-34.52.02Z"/>
      <g>
        <path class="cls-1" d="M116.55,128.87c1-.38,2.21-.27,3.63.32,2.89-.31,4.47.49,4.74,2.4-1.71,3.54-3.34,7.12-4.45,10.9l.92.36c2.91-6.8,7.02-12.58,12.34-17.32,5.75,1.09,9.51-1.38,13.76-5.02,4.69-1.98,7.99-4.37,11.63-7.82-.08-.16-.14-.32-.16-.48-.02-.26,3.97-2.14,4.49-2.29l.78.46.83-.5.17-1.08c11.1-7.97,13.72-24.91,12.18-37.37-.69-.38-1.22-.87-1.61-1.47l-1.9-9.25-.71-.91c.92-5.85.08-11.39-1.28-17.66,11.33,15.49,14.06,35.45,8.28,53.49-4.27,13.33-13.58,21.85-26.06,27.64-10.68,4.96-21,9.27-27.39,19.85-3.49,5.78-5.48,12.28-5.57,19.04l-.14,10.18h-5.93s-.02-31.28-.02-31.28c0-4.27.39-8.35,1.48-12.18Z"/>
        <path class="cls-1" d="M74.29,101.47c.57-1.03,3.31,1.11,2.71,2.08.52.59.82,1.38.9,2.38,1.05,2.04,1.77,3.92,2.05,6.22l5.35,5.26-.14.92-.18.93,7.05,10.94-.39.78c.3.18.58.37.84.6s.48.44.6.71c2.77,5.97,4.74,12.23,6.08,18.65l7.22,3.78c.55-5.86.31-11.81-2.46-17.12l.21-1.24c-1.07-.39-1.89-1.29-2.48-2.72-1.77-2.44-3.82-4.59-6.16-6.48l.13-.9c-1.17-1.41.08-2.33,1.76-2.19,1.43.9,2.86,1.39,4.29,1.45,1.92,1.11,3.82,2.27,5.7,3.5,1.56-.39,4.61-.66,5.27,1.06-.74,4.17-1.07,8.4-1.07,12.86v29.39s-6.63-.19-6.63-.19c-6.12-.89-10.07-6.1-10.31-12.2-.39-10.02-2.81-19.56-7.88-28.22l-9.4-14.4c-2.69-4.12-5.39-7.99-7.68-12.33-2.76-5.25-4.99-10.58-5.89-16.67,2.39,4.34,4.67,8.63,8.6,11.66l1.93,1.49Z"/>
        <path class="cls-1" d="M104.15,26.57c.18.23.43.61.29.77-.69.84-5.13,5.26-5.78,5.18-.31-.04-.52-.38-.68-.67l-.51.67c-1.99.02-3.94.56-5.86,1.61-1.19,0-1.51-.34-1.63-1.49-.78,2.69-3.11,10.31-5.14,11.37-.24.13-.51.21-.78.28l-.69-.54c1.21-4.17,1.2-5.18-.03-3.04l-.91-.03c-.6,2.38-1.69,5.62-3.66,6.99.01,2.15-.29,4.99-1.94,6.39.67.37.34,1.37-.47,1.19-1.32,1.4-2.84,3.28-3.45,5.23-.57,4.99-1.3,9.96-2.57,14.83.04,5.24.76,10.46,2.15,15.64.14,1.65-.31,2.54-1.36,2.67l-1.93-2.71c-4.49-8.37-7.05-18.41-4.86-27.99,6.1-26.63,30.68-46.27,57.75-46.12-6.89,2.26-13.08,4.95-17.95,9.76Z"/>
        <path class="cls-19" d="M118.06,22.08c1-.04,1.97.15,2.91.57,5.64.06,11.27.5,16.89,1.11,1.96.89,3.98,1.59,6.06,2.13,2.78,2.04,5.76,3.79,8.92,5.24,3.33,1.37,5.68,3.5,7.07,6.39,2.5,2.43,5.2,4.42,8.11,5.95l.58.78c2.02,7.02,1.43,14.51-.34,21.62l-1.16-1.29c-3.26-11.01-10.33-20.18-19.83-26.51l-.76-1.43c.28-1.33,2.43-.33,3.06.61.9-1.27,2.36.24,3.14,1.11.4-1.11,3.43.42,3.18,1.55.51-.56,1.33-.39,2.45.51l-.96-2.56c-.9-.29-1.61-.93-2.13-1.92-.7,1.14-3.72-.37-4.12-1.58-.1.27-.24.57-.5.65-.71.2-3.37-1.25-4.05-1.85-.6,1.23-3.45.45-4.15-.63-.04.29-.14.72-.35.75-.58.06-6.01-.02-6.28-.18s-.42-.47-.51-.77c-11.64-2.45-23.26-1.68-33.93,4.03-.81-.05-.96-.32-.65-1.09-.01-1.91,4.39-6.59,5.93-6.92.28-.06.57-.07.86-.06,3.17-2.59,6.73-4.91,10.56-6.2Z"/>
        <path class="cls-5" d="M106.29,47.42c-4.41,5.32-6.87,11.7-7.87,18.47-.54,1.71-.64,3.64-.31,5.76-.42,1.71-.34,1.72.25.04.25,5.82,2.47,11.36,6.32,16,4.92,5.94,7.35,13.17,6.71,20.4-2.49-3.32-5.15-6.3-8.67-8.2l-8.93-4.82c-4.05-2.49-7.55-18.48-5.18-21.49.17-.22.38-.4.6-.58.89.49,1.81.95,2.77,1.36-1-3.89-1.17-7.74-.5-11.55.65-2.83,2.03-5.51,3.89-7.82,1.48-1.83,8.19-8.55,10.05-8.73,1.14-.11,1.54.19.88,1.16Z"/>
        <path class="cls-18" d="M165.05,109.87l-.83.5-3.3,1.6-1.81.71c-.5,1.29-8.08,3.19-8.61,2.91-.16-.08-.27-.24-.38-.42-.64-.29-.64-.8.01-1.53,7.2-5.42,12.83-12.73,15.81-21.27l1.19-1.19-.26-1.64c1.52-4.75,1.81-9.91,1.89-14.69-.99-.37.42-3.74.85-4.31.27-.35.48-.53.98-.44,1.26-3.28,2.05-6.82,2.6-10.3l1.07.1.31.06.42.89.5,1.26l1.16,5.73.62,2.98,1.62,1.15c1.11,6.21.43,12.39-.9,18.63-1.1,5.14-2.95,9.89-5.85,14.23-1.67,2.5-4.16,4.31-6.34,5.99Z"/>
        <path class="cls-16" d="M129.34,36.85c9.56.22,19.06,6.51,25.15,13.79,5.97,7.15,10.12,17.56,8.99,26.75.09.26.16.52.18.79.17,2.01-5.94,9.07-7.74,10.74l-1.42.36c1.83-4.25,2.5-8.8,2.4-13.63-.15-7.38-2.43-13.51-6.78-19.46-7.83-10.7-21.39-15.64-34.24-13.09l2.8-1.88c.56-1.37,1.78-2.34,3.66-2.89,1.53-.73,2.89-1.34,4.59-.84-.44-1.06,1.95-1.65,2.41-.64Z"/>
        <path class="cls-19" d="M88.39,107.7c3.61,3.44,7.54,6.51,11.8,9.19,1.89.66,3.39,1.56,4.51,2.71.93-.52,1.12.02.37.71l.92.55c.56,3.37,2.25,7.78,1.97,1.31l.75-.53.56-.65c1.61.43,3.23.69,4.89.77l.44.79-1.96,7.53-3.54-.74-1.62.67c-.99-.71-1.85-1.15-2.79-1.58-1.25-1.16-2.46-2.58-4.55-2.17l-2.65-1.4c-.26-.14-1.35-.1-1.47.16l-.4,1.24c-.21.21-.54.51-.73.4-2.31-1.4-7.86-5.54-9.74-7.39l.02-.93-4.87-4.69c-1.03-.99-1.3-1.23-1.4-2.96-.14-2.48-2.61-4.4-1.9-7.13,1.91.14,3.84.76,5.79,1.83,2.18.44,4.04,1.22,5.61,2.33Z"/>
        <path class="cls-12" d="M134.07,35.95c1.01-1.03,2.5-1.4,4.48-1.09,2.39-.18,4.57.22,6.52,1.22.48-1.02,1.57-.51,1.44.57,4.01,2.66,7.58,5.54,10.98,9.23,5.19,5.73,8.73,12.66,10.77,20l-.64,2.56c.23.2.58.5.5.71-.83,2.25-2.56,5.98-3.74,8.07l-.92.18-.68-5.16c-.88-9.26-5.15-17.69-11.67-24.14-5.32-5.26-11.58-8.68-18.83-10.42l-2.97-.83c-.02-.29-.03-.71.18-.8.75-.36,4.19-1.07,4.55-.09Z"/>
        <path class="cls-1" d="M168.6,44.25c-.4.01-1.58-.14-1.95-.42l-3.62-2.67-3.73-3.25c-.7-2.3-2.61-3.72-4.81-4.98l-1.67-.95c-1.96-1.12-4.36-1.94-6.13-3.26-1.26-.93-2.2-1.96-3.75-2.39l-2.69-.73c-.59-.16-1.69-.77-2.24-1.08l-9.22-.87-7.89-.26c-.73-.02-2.16-.86-2.83-1.32l6.43-2.18c12-3,20.97,0,31.17,6.6,6.51,4.21,10.85,10.49,12.94,17.75Z"/>
        <path class="cls-19" d="M159.11,112.68c-.07.69-.56,1.38-1.24,1.89-1.34,1-2.48,2.85-3.9,3.53l-3.39,1.61c-1.77.84-3.72,1.93-5.11,3.18-.92.83-1.4,1.55-2.61,1.99-1.31.47-2.91,1.51-4.17,1.53l-2.84.03-2.11-.22c-4.46,4.08-7.61,9-10.31,14.36l-1.61,3.2-2.27-.76c1.2-4.22,2.74-7.8,4.68-11.6.23-.45-.89-1.39-1.4-1.36-2.37.15-4.17-.33-6.26-1.19l1.58-5.59.65-.71c3.74.38,7.41.22,10.99-.47l.85.38c.74-.26.87.11,1.02.76l3.64.44c4.59-3.12,9.24-6.11,13.96-9l.88.51,8.99-2.49Z"/>
        <path class="cls-19" d="M76.36,55.25c.19.18.36.37.43.59.15.47-.47,8.26-.66,9.31-.08.43-.4.76-.7,1.06.97.78,1.57,3.26.3,3.83.21.05.22.16.05.33,1.01.04.99.38.06.74,1.11.68,1.52,3.59.33,4.18l.65,3.81c.21,7.99,2.82,15.66,7.23,22.3l.15,1.57c-1.32.55-2.81.21-4.48-1l-3.49-2.25-.26-1.14c-1.82-1.4-3.53-3.12-4.83-4.95.58-1.18.76-2.47.47-3.76l-1.48-6.6c-.38-1.68-.67-2.99-.47-4.7.1-.87-.24-2.61-.03-3.49l.86-3.68,1.27-6.71c-.23-3.22.58-6.21,2.93-8.44l.44-1.24c.11-.31,1.03.07,1.25.23Z"/>
        <path class="cls-16" d="M88.31,56.71l.67,1.52c-.09,3.65-.07,7.3.08,10.94l-.35.79c1.17-.02,1.55,2.6.5,3.04-1.35,7.98.58,15.13,4.58,22.07l-3.05-2.1c-3.13-.94-6.34-4.98-7.75-7.93l.13-1.39c-1.05.35-1.61-.89-.77-1.57-1.31-8.04.04-17.72,4.21-24.9.44-.76,1.1-1.2,1.77-.46Z"/>
        <path class="cls-16" d="M119.4,36.84c.72.92-1.95,2.47-2.7,1.61-3.93,2.35-7.49,5.45-10.4,8.97-.09-.09-.26-.68-.38-.6l-.63.41c-4.32,2.82-8.27,6.09-10.92,10.6l-2.89,4.98c-.79-.54-.97-1.66-.54-3.35-.19-1.58.13-2.6.96-3.07-.27-.09-.61-.23-.67-.48-.07-.32,1.19-5.78,1.4-6.37l.85-.35c1.59-3.34,4.71-5.52,7.78-7.44,5.24-3.28,11.59-5.62,17.65-5.66l.5.75Z"/>
        <path class="cls-12" d="M79.57,84.02c1.4,1.05,2.55,2.51,3.44,4.39,1.43,1.48,2.42,3.06,2.96,4.72.42.42,1,1.35,1.28,1.86l6.47,9.5-.45.74c-.15.27-.38.66-.61.63-1.63-.22-4.77-1.05-6.37-1.59-1.26-.06-1.96-.49-2.11-1.3-5.02-7.23-8.17-15.64-8.06-24.56l.04-3.11c.28-.14.67-.24.81-.05.54.74,2.35,5.94,2.66,7.16.14.54.07,1.09-.07,1.62Z"/>
        <path class="cls-16" d="M110.19,113.4c1.2-.22,1.41,1.03.73,1.88.34,0,.35.12.06.32l-.51.64c-2.11-.38-3.79-1.31-5.04-2.8-.68.68-1.31.4-.95-.61-2.83-2.52-5.95-4.7-9.51-6.05l-.35-.97c-.82.73-1.46.59-1.35-.57l-.57-1.02-4.62-6.74c-.56-.82-.83-1.6-.83-2.48l1.44.8c2.57,1.95,5.34,3.46,8.27,4.93,5.85,2.93,10.88,6.6,13.23,12.68Z"/>
        <path class="cls-12" d="M145.44,110.48c.36,1-.19,1.96-1.65,2.86-8.2,6.26-12.29,9.39-12.29,9.39l-.87-.27c-.87.7-3.09.9-4.4.92l-5.37.07-2.71-.19,2.6-6.2c.41-.96,4.67-.94,5.18-.7.28.13.41.46.52.76.22-1.15,2.83-1.39,3.24-.28l1.61-1.13c4.5-.98,8.87-2.72,12.78-5.27l1.38.03Z"/>
        <path class="cls-10" d="M170.58,70.1l-1.83,4.76c0,3.6-3.3,8.38-5.77,11.12l-1.42.54c-1.07,2.58-2.69,4.85-4.87,6.81l-.87-.18c-1.67.53-2.58-2.16-1.38-3.35l.06-.5c3.53-3.53,6.89-7.39,8.98-11.89l4.15-8.96,2.95,1.67Z"/>
        <path class="cls-10" d="M107.51,28.28c-2.51,2.05-4.81,4.44-6.8,6.98l-.08,1.35c-1.89,2.49-3.61,5.14-4.78,8.05l-1.09.77c-.41,1.11-3.31.73-3.46-.43-.89-.48-.58-1.36.92-2.64-.04-.32-.07-.64-.05-.96s.04-.61.17-.84c1.49-2.62,2.99-5.24,4.69-7.74.02-.66.2-.96.94-1,.22.05.99-.16,1.22-.38l4.96-4.9,2.05,1.01,1.31.7Z"/>
        <path class="cls-10" d="M84.19,102.96l9.08,2.27,1.35.57c.74,1.06-1.29,3.03-2.46,2.81-.39,1.32-3.08.11-3.76-.91-4.01-.75-7.84-2.18-11.39-4.16l-.97-.76-1.74-1.31,1.67-2.89c2.43,1.87,5.26,3.64,8.23,4.38Z"/>
        <path class="cls-12" d="M110.98,115.59c1.11-.13,1.27.58.4,1.22.91-.13,1.05.7.42,2.51.95.33,1.58-.29,1.91-1.85l.72-.29c.06-1.13,2.12-1.06,2.32.03l-2.17,5.34-2.57-.19-3.31-.71c-.93.38-1.03.05-.28-.61-1.26-.52-2.37-3.25-1.35-4.19-.98.65-2.47-2.38-1.57-3.09-.34,0-.36-.11-.07-.33l3.36,1.5,2.19.67Z"/>
        <path class="cls-10" d="M90.73,92.97l-3-.08c-.44-.03-1.45.41-1.77.24-2.67-2.65-4.75-5.75-6.4-9.11-.26-.91,2.16-.75,2.74-.66.29.04.56.1.81.29,1.79,3.65,4.47,6.72,7.62,9.32Z"/>
        <path class="cls-16" d="M130.43,110.45l.4.71-2.91,3.78c-.33,1.13-.83,1.86-1.5,2.2l-5.69-.06,4.15-7.15-.22,1.4,3.41-.51,2.36-.37Z"/>
        <path class="cls-10" d="M123.51,35.03c.7-.13,1.38.18,2.05.94,1.05.32,1.51.83,1.37,1.52-2.91.77-5.75,2.05-8.24,3.73l-2.84-1.25.85-1.52,2.7-1.61c-.21-1.22,3.29-2.7,4.11-1.8Z"/>
        <path class="cls-16" d="M120.28,110.46l-3.53,6.75-2.32-.03c-.64,0-.53-.16.05-.43-1.12-.02-.86-1.22.17-1.33-.14-1.84.05-3.54.56-5.11l2.43.43c.65.12,1.99-.07,2.64-.28Z"/>
        <path class="cls-10" d="M114.56,112.3c-.51,1.18-2.33,3.51-3.64,2.98l-.73-1.88c1.8-1.16,3.17-3.01,4.15-5.04l.5-.61c.29,1.3.23,3.3-.28,4.55Z"/>
        <path class="cls-14" d="M98.24,66.19c.15.4.19.81-.06,1.17l.18,4.33-.47,1.32-.11-6.29c0-.23.6-.89.64-.84l-.18.3Z"/>
        <path class="cls-5" d="M98.18,67.36l.06-1.17.31.58c.08.15-.27.49-.37.6Z"/>
        <polygon class="cls-15" points="63.63 87.37 63.64 87.62 63.64 87.88 63.63 88.12 63.62 87.88 63.62 87.62 63.63 87.37"/>
        <polygon class="cls-15" points="171.7 41.65 171.71 41.91 171.71 42.18 171.68 42.44 171.68 42.18 171.69 41.91 171.7 41.65"/>
        <path class="cls-11" d="M147.66,96.25c1.23.26.82,3.32.2,4.23.15.25.35.66.19.81-.88.8-7.91,6.35-8.42,6.51-.29.09-.62-.1-.9-.26-2.32,1.23-1.9-2.39-.88-3.65l6.11-4.79,3.69-2.85Z"/>
        <path class="cls-8" d="M155.82,93.14l.26.82c-2.3,2.39-4.74,4.63-7.31,6.74l-.9-.22-.29-1.64.09-2.59,4.38-4.16,2.4-2.3c-.13,1.21.35,2.39,1.38,3.35Z"/>
        <path class="cls-4" d="M137.53,108.51l.21.84c-2.28,2.01-4.39,4.17-6.33,6.48l-1.75,1.02-3.24.28c.05-1.03.48-2.16,1.14-2.98l2.86-3.71,1.37-.74,2.39-1.27c1.69-.93,2.8-.9,3.34.07Z"/>
        <g>
          <path class="cls-5" d="M154.5,89.29c.72.1.68.37-.06.5l-.25,1.29c-1.86,1.78-3.74,3.57-5.62,5.35l-.91-.18-.53,1.37-8.38,6.54-.89-.26c-.87,2.56-3.57,4.8-6.05,5.82.46,1.02-.64,1.54-1.37.74-1.53,1.04-3.35,1.57-5.44,1.59-.73-.22-.77-.93-.11-2.11l3.31-4.67,9.41-12.87c2.13-2.92,3.7-6.05,4.87-9.47,3.23-9.4-.33-19.38-8.56-24.62-8.03-5.12-18.73-4.1-25.68,2.84-2.39,2.39-4.18,5.35-5.11,8.45-.19.72-.46.92-.81.6-.23-1.7-.27-3.42-.12-5.15,1.01-7.23,4.36-14.01,10.02-18.82l3.67-3.12c5.36-2.5,12.57-1.41,18.08.44,10.74,3.62,19.32,12.51,22.43,23.45,1.92,6.76,2.23,16.38-1.89,22.29Z"/>
          <path class="cls-4" d="M103.12,69.6l-1.03,3.46c-.29-2.69-.26-5.4.11-8.02l.17,3.85c0,.13.09.64.22.67l.53.04Z"/>
          <path class="cls-13" d="M147.53,62.69c-1.01-2.21-2.23-2.3-3.18-4.5-.71-1.66-2.47-2.66-3.83-3.7l-2.81-2.16c-1.44-1.1-3.49-2.08-5.15-2.66-.15-.1-.57-.7-.4-.75l1.14-.28c5.51.4,10.09,2.59,13.46,6.86l1.17,2.98c1.26,3.19,2.24,6.16,2.46,9.83l-1.56-2.73-1.31-2.88Z"/>
          <path class="cls-13" d="M138.74,107.53c.65.91-.32,1.62-1.2.98-1.57-.4-3.24,1.15-5.73,1.2l6.05-5.82-.04,2.74c0,.17.14.72.28.74l.63.16Z"/>
        </g>
        <path class="cls-19" d="M165.05,109.87l-.83.5.83-.5Z"/>
        <path class="cls-19" d="M104.12,136.36c3.48,6.52,3.56,11.64,2.92,19.66l-3.68-2.3-3.07-1.15c-.99-.37-1.92-.95-2.13-2.13-1.21-6.92-3.61-13.27-6.53-19.47-.54-1.43.41-1.52,1.66-1.1,2.48,2.58,5.3,4.65,8.46,6.21,1.1-.46,1.89-.37,2.37.28Z"/>
        <path class="cls-9" d="M85.16,118.33l10.44,7.93,3.36,3.05c2.24,2.04,3.8,4.53,5.15,7.05l-2.44.51c-2.11-.99-4.16-2.08-5.86-3.67l-2.87-2.67c-.11-.11-.85-.21-.94-.09l-.38.53-7.43-11.53c-.03-.14-.09-.82.06-.87l.9-.25Z"/>
        <g>
          <path class="cls-1" d="M134.29,164.03c-.8-.34-1.06-1.3-.78-2.9-.22-1,.03-1.64.74-1.93-1.13,0-1.11-2.09-.03-2.3v-.38c-1.02-.09-.98-.44-.03-.75v-.37c-1.17.16-.24-1.54.17-2.12-.54-1.2-.7-3.5-.15-4.88.18-.46.42-.63.88-.91-1.37-.54.16-2.96,1.1-3.76-.61-.13-.7-.69-.27-1.7-1.47,1.32-2.83,2.74-4.08,4.28,1.2.33.61,1.89-.39,2.28.29.06.7.18.72.4.05.46-.37,5.51-.51,5.91l-.8.47c1.2.34,1.13,4.18-.03,4.61,1.16.15,1.1,3.03-.02,3.27v9.08s-6.25-.01-6.25-.01l.12-10.14c.08-6.42,2.06-12.52,5.48-17.89,8.08-12.67,23.7-15.35,35.23-23.26.24-.14.42-.13.54.02-3.09,4.53-6.22,8.94-8.72,14-3.94,7.94-5.77,16.37-6.1,25.27-.22,6.07-4.65,11.31-10.71,11.9l-6.1.07-.02-8.25Z"/>
          <g>
            <path class="cls-10" d="M134.25,159.19l.04,4.83-1.98-.38-1.49-.4.02-3.27c-.09-1.07,2.9-1.66,3.42-.78Z"/>
            <path class="cls-15" d="M165.94,121.04l-.54-.02.64-.4c.14-.06-.01.2-.1.43Z"/>
            <path class="cls-19" d="M149.34,142.84c-1.19,4.01-1.67,8.25-2.33,12.55l-3.61,2.18c-1.57.95-2.87,1.72-4.68,2.15l-.09-5.48c-.04-2.51.47-4.86,1.2-7.19.57-.41,1.31-.62,2.23-.62,2.03-1.59,4.19-2.94,6.5-4.05l.77.46Z"/>
            <path class="cls-9" d="M149.34,142.84l-2.93,1.46-3.81,2.69c-.63.44-1.91.47-2.77.07l1.06-3.39c2.47-5.49,7.22-9.33,12.84-11.37-1.76,3.55-3.33,6.95-4.39,10.55Z"/>
            <path class="cls-15" d="M135.08,147.48l-.72,5.79c-.17.09-.31.15-.32.14-.38-.64.18-1.43.02-.07-.24,2.04-1.62,3.71-3.2,2.02l.58-6.78c.31-1.16,2.94-2.07,3.64-1.1Z"/>
            <path class="cls-2" d="M134.35,153.28l-.18,2.12v.37s.03.75.03.75v.38s.04,2.3.04,2.3l-1.57.48-1.85.3.03-4.61c.68.09,1.87-.29,2.37-.71.47-.4.62-1.7.68-2.35l.45.98Z"/>
            <path class="cls-12" d="M136.18,143.72c-.82,1.26-3.04,4.04-4.35,2.58.24-1.39,1-2.53,2.1-3.52,1.24-1.12,1.99-1.89,3.64-2.74l-1.4,3.68Z"/>
            <path class="cls-6" d="M136.18,143.72l-1.1,3.76-1.59.52-2.06.58.39-2.28c1.15-.24,2.25-1.15,3.25-2.04l1.09-.54Z"/>
            <path class="cls-10" d="M134.21,156.9c-.33-.15-.33-.22-.01-.38v.38Z"/>
            <path class="cls-10" d="M134.18,155.77c-.13-.07-.38-.45,0-.37v.37Z"/>
          </g>
        </g>
        <path class="cls-19" d="M97.98,31.84l-.23,1.34c-2.11,3.06-3.83,6.09-5.52,9.19-4.79,5.26-9.44,10.64-11.88,17.57-.38.56-.71.72-1.35.31-1-.05-.89-3.09.27-3.17-.02-.87.47-4.92.81-5.1.16-.08.35-.11.54-.13l2.11-6.2c.22-.76.66-1.22,1.31-1.36,1.69-2.54,2.99-5.22,4.13-8.17.96-2.48.21-4.29,2.74-4.64l-.14,1.55c-.15,1.64,3.65-1.99,7.19-1.18Z"/>
        <path class="cls-7" d="M78.84,62.37c.7,1.03.89,2.38.58,4.05.3,1.45.15,2.65-.44,3.58l-.96.36c-1.03-1.23-1.9-2.61-2.6-4.15-.29-3.63.45-7.34.94-10.97l.47-1.19c.37-1.24,1.02-.82,1.53.25v7.07s.49.99.49.99Z"/>
        <path class="cls-6" d="M82.43,40.68l.85.41c-.16,3.67-1.04,7.26-2.65,10.76l-.89,4.22-.47,1.01c-.76.17-1.1-.24-1-1.24l.5-8.17c.97-2.43,2.14-4.88,3.66-6.99Z"/>
        <path class="cls-15" d="M79.27,57.08l-.27,3.17c1.13.12.92,1.96-.15,2.11l-1,.05-.17-4.85-.09-2.44c0-.22.26-1.01.04-1.02l-.79-.05c.41-2.15,1.13-4.35,1.94-6.39,1.64,4.01-.67,6.99.5,9.42Z"/>
        <path class="cls-12" d="M84.06,44.29c-.09.88-.75,1.79-1.17,2.81l-2.25,4.75,1.17-5.02.41-2.35c.36-1.32.53-2.48.22-3.8l2.3-3.18c.94,2.83-.43,4.56-.67,6.79Z"/>
        <path class="cls-12" d="M135.29,32.32c.33,1.12-2.73,1.57-3.15.51-1.09.97-2.58,1.52-4.47,1.63-1.5.68-2.89.87-4.15.57l-4.11,1.8-2.82.03-4.44.91c-7.27,2-13.66,5.98-18.67,11.4-1.12-.48.13-3.83,1.28-3.75,1.27-3.72,3.53-7.07,5.95-10.18l.58.43c10.13-5.56,21.73-6.9,32.98-4.04.24.06.93.38,1.03.66Z"/>
        <path class="cls-15" d="M146.58,33.15c1.03.55,3.24,1.88,3.4,3.11.05.37-.17.71-.41.99l-3.06-.61-1.44-.57-1.09-1.05c-.58-.48-1.35-1.74-1.56-2.51l4.15.63Z"/>
        <path class="cls-12" d="M155.25,35.94c1.22.86,2.82,3.92.64,3.97l-3.18-1.55c-1.2-.66-3.29-3.26-1.58-4.01l4.12,1.58Z"/>
        <path class="cls-6" d="M151.13,34.36c-.09.48.18,1.27.38,1.59l1.19,2.42-3.14-1.11c-.31-1.02-1.22-2.25-2.02-2.9l-.97-1.2,4.55,1.21Z"/>
        <path class="cls-1" d="M155.89,39.91c.34-.11.35-1.11.23-1.4l-.87-2.57,2.68,1.44,1.03,2.52c.21.52.31,1.29.34,2l-3.41-2Z"/>
        <path class="cls-13" d="M89.2,73l-.5-3.04c-.07-.69.19-1.26.33-.57.14-1.74.8-4.88,1.54-6.43.1-.21.57-.17.89-.15-.26,3.98.73,7.97,1.6,12.2-1.47.49-3.63-.55-3.87-2.01Z"/>
        <path class="cls-9" d="M167.13,91.18c-2.85,9.16-8.65,17.12-16.45,22.96l-.56,1.03c-.55.15-1.11.36-1.78.8l-13.02,8.57-4.3-.64-.4-1.43,3.39-2.73,2.63-2.18,2.86-2.17,2.22-1.47c1.46-.97,2.85-2.09,3.71-3.44l.58-1.29c2.94-2.06,5.45-4.64,7.74-7.38l1.35-.44c3-3.24,6.04-6.44,9.14-9.59,1.24-1.16,2.2-1.36,2.88-.59Z"/>
        <path class="cls-12" d="M167.13,91.18c-.9.21-1.87.64-2.55,1.31l-2.11,2.08-2.47,2.83-3.24,2.81c-.53.46-1.15.93-1.64,1.14l-.14-1.18c2.77-4.28,4.96-8.84,6.59-13.67,2.93-3.5,5.56-7.4,7.19-11.66l.59.79c.21,5.41-.51,10.62-2.22,15.54Z"/>
        <path class="cls-2" d="M132.14,32.83c.27,1.65,1.71,1.59,1.93,3.12l-4.74.89-2.41.64-.82-.39c-.96-.37-1.95-1.14-2.59-2.06,2.71-1.19,5.69-1.73,8.63-2.21Z"/>
        <path class="cls-12" d="M92.15,108.61c1.37-.93,4.9.31,5.26,1.98.26-.26.55-.37.85-.2,1.57.85,4.77,2.82,4.09,4.69,1.11-.45,2.89,2.46,2.13,3.39,1.08-.18,1.18.69.22,1.14l-2.18-.63c-5.08-2.46-9.39-5.73-13.31-9.76-.34-.35-.78-1.09-.81-1.51l3.76.91Z"/>
        <path class="cls-1" d="M108.42,121.04l.28.61.06,4.38c-.45.12-1.67.24-2.19.23l-1.51-5.93c.58-1.18,2.84-.36,3.35.72Z"/>
        <path class="cls-6" d="M108.42,121.04l-3.35-.72-.37-.71-.22-1.14c-.48-1.07,1.79-2.42,2.6-1.62l1.35,4.19Z"/>
        <path class="cls-2" d="M80.48,77.6c1.59-.21,1.88,3.18,1.87,4.48l.77,1.57-.69.63-2.85-.26c-1.17-2.37-2.15-4.92-2.92-7.65l-.48-1.09-.33-4.18c.69-1.13,1.69-.16,2.43.65.56,2.05,1.3,4,2.21,5.84Z"/>
        <path class="cls-11" d="M78.98,70.01c.3.02.75.05.82.27.21.64,1.42,6.32,1.31,6.65s-.36.52-.64.67c-2.92-.83-.69-5.52-4.64-6.49l-.06-.74c.2-.11.18-.22-.05-.33l-.3-3.83c2.22.52,1.6,3.17,3.55,3.79Z"/>
        <path class="cls-2" d="M75.78,70.37l-.05-.33c.77.18.5.16.05.33Z"/>
        <path class="cls-12" d="M92.22,42.37l-.92,2.64c.21,1.83-.11,3.76-.95,5.79-.18,2.14-.73,4.01-1.65,5.6.45.58.23.76-.38.32-.13,0-.96.52-1.12.85-1.91,3.93-3.62,8.49-4.26,12.93-.54,3.75-.27,7.44-.22,11.2-.09.11-.34.45-.37.39l-1.87-4.48-1.5-7.59c-.48-2.48-.32-5.13-.13-7.64l.15-2.11.76-.77c2.33-6.22,5.98-11.54,10.72-16.1l1.75-1.02Z"/>
        <path class="cls-11" d="M91.89,56.39l-.42,6.42c-.26.37-.36,1.27-.55,1.86l-1.36,4.18c-.05.15-.04.78-.16.85l-.69.26c-.71-4.34-.68-8.81-.39-13.24l.38-.32c.03-1.15,2.91-1.14,3.2,0Z"/>
        <path class="cls-2" d="M94.76,45.44l-1.28,3.75-1.59,7.2h-3.2c.26-3.89,1.32-7.71,2.61-11.38l3.46.43Z"/>
        <path class="cls-11" d="M104.48,112.82l-.63.53-5.27-2.77c-.41.2-.8.2-1.17,0-1.58-.87-3.53-1.56-5.26-1.98l2.46-2.81c3.61,1.53,7.89,3.4,9.86,7.02Z"/>
        <path class="cls-7" d="M104.48,112.82l.95.61.07.33c.48,1.17-2.54,2.33-3.15,1.31-1.13-1.8-3.07-3.45-4.94-4.48l.68-.84c.13-.13.64.23.89.35l5.5,2.72Z"/>
        <path class="cls-2" d="M114.56,112.3l-.09,2.59c.06,1.15-2.21,2.66-3.09,1.93l-.4-1.22-.06-.32,2.39-2.27,1.25-.7Z"/>
        <path class="cls-16" d="M155.11,101.36c-2.79,3.42-5.89,6.74-9.67,9.12-3.6,2.27-7.31,4.32-11.61,5.37l-4.16,1.01,2.62-3.33,5.25-5.02,1.2-.98,9.12-7.06,5.12-4.44,2.84-2.9,1.44-1.5,4.3-5.14c-.34,5.17-3.55,10.37-6.45,14.85Z"/>
        <polygon class="cls-15" points="107.07 116.84 104.48 118.46 102.35 115.07 104.4 114.32 105.5 113.76 107.07 116.84"/>
        <path class="cls-15" d="M114.48,116.75l-.05.43c-.15,1.24-.71,2.65-1.87,3.62-.33-.34-.69-1.09-.76-1.48-.27-1.7,1.37-4.06,2.68-2.57Z"/>
        <path class="cls-7" d="M114.47,114.89l.19.54-.17,1.33c-.68,0-1.83.72-2.08,1.33l-.6,1.24-.42-2.51,3.09-1.93Z"/>
        <g>
          <path class="cls-7" d="M142.43,32.52c1.02.67,3.09,2.37,2.65,3.56-3.66-.31-7.41-.81-11.01-.13-1.1-.21-3.16-2.13-1.93-3.12l3.15-.51,7.14.21Z"/>
          <polygon class="cls-2" points="136.18 35.22 136.37 35.41 136.18 35.7 135.99 35.41 136.18 35.22"/>
        </g>
        <g>
          <path class="cls-5" d="M120.28,110.46c-.89,1.51-4.53,1.43-5.06-.15l-.26-.17c.16-2.32.14-4.63-.06-6.92-.51-3.01-.9-6.22-2.26-9.14l-2.03-4.38-3.04-5.63c0-.72-.22-1.25-.68-1.57l.1-.37c-1.07-2.96-1.14-6.07-.99-9.18.39-3.96,2.73-7.43,5.82-10.13,2.87-2.5,6.14-3.81,10-4.04,9.74-.58,17.97,6.97,18.22,16.95.11,4.45-1.51,8.78-4,12.41l-5.25,7.66c-3.46,5.05-7.32,9.59-10.51,14.66Z"/>
          <g>
            <path class="cls-11" d="M115.22,110.31l-.56,5.11c-.71.18-.8-.1-.19-.54-1.31-.2-.76-1.92.09-2.59l.28-4.55.05-4.53c.05.05.34.89.33,1.21v5.88Z"/>
            <path class="cls-4" d="M106.98,82.13c-.98-1.91-1.49-4.15-1.26-6.47l.27-2.71.33,4.86.66,4.32Z"/>
            <path class="cls-4" d="M107.56,84.07l-.36-.82-.3-.44c-.05-.07-.06-.22-.03-.31.23-.07.25-.01.25.21l-.07,1.35Z"/>
            <path class="cls-5" d="M107.2,83.25l-.3-.44.3.44Z"/>
            <path class="cls-3" d="M125.29,92.1c-.83-1.18-1.26-2.3-1.7-3.78l-2.62-1.93c-1.17-.86-3.72-.46-5.34-.61-1.42-1.84-2.43-4.09-3.07-6.36-1.85-6.56,2.23-13.18,9.04-14.02,4.31-.53,8.14,1.6,10.34,5.27s1.92,7.89.09,11.59c-1.18,2.39-2.74,4.52-4.32,6.62l-2.43,3.21Z"/>
          </g>
        </g>
      </g>
    </g>
    <g>
      <path class="cls-17" d="M90.52,229.1l85.84.03c1.24,0,1.97.71,2.03,1.64.08,1.16-.63,1.99-2.05,1.99h-106.79c-1.19,0-1.89-.52-2.19-1.36-.27-.76.4-2.25,1.36-2.26l14.52-.04c-1.91-2.85-2.47-5.92-1.34-9.24.87-2.58,3.24-5.16,6.51-5.85l5.72-.34c-1.01-2.33-1.17-4.61-.03-6.94.78-1.59,2.8-3.63,5.21-3.68l7.96-.15c7.04-.14,13.93.32,20.93-.19,5.95-.44,11.4-2.59,17.24-3.87.59-.13,1.81.56,1.84,1.11.04.66-.12,1.81-.29,2.86l3.88.09c.64.02,1.51,1.23,1.56,1.82s-.72,1.82-1.52,1.82h-50.43c-2.08,0-3.46,1.72-3.55,3.44-.09,1.8,1.32,3.73,3.57,3.73h62.17c.96.01,1.7,1.29,1.64,1.94-.08.86-.78,1.74-1.94,1.74l-71.33-.04c-3.4,0-5.93,2.3-6.12,5.54-.17,2.82,1.92,6.19,5.58,6.19Z"/>
      <path class="cls-17" d="M115.48,185.98l-14.9,1.28c-1.95.17-3.34-1.89-3.55-3.4s.81-4.09,2.88-4.1l41.47-.05c-8.31,3.13-16.82,5.06-25.89,6.27Z"/>
      <path class="cls-17" d="M99.66,202.24c-.59-.18-1.17-1.48-1.17-2.07s.8-1.71,1.42-1.76l12.31-1.02c10.84-1.37,21.41-3.25,31.73-6.78,1.6-.55,3.18-1.2,4.31.58.27.42.51,1.48.39,1.95s-.92,1.15-1.54,1.34c-13.99,4.24-28.22,6.7-42.84,7.86-1.63.13-3.05.37-4.61-.1Z"/>
      <path class="cls-17" d="M99.55,194.72c-1.33.07-2.22-.55-2.44-1.39-.19-.74.27-2.18,1.23-2.22,12.16-.43,23.95-1.99,35.68-5.13l8.87-2.95c1.29-.43,2.48-1.89,3.56-2.92.37-.36,1.55.25,1.82.78.95,1.87.06,4.1-1.98,4.88-14.57,5.63-30.76,8.06-46.74,8.94Z"/>
      <rect class="cls-10" x="88.94" y="220.18" width="71.43" height="1.97"/>
      <rect class="cls-10" x="123.72" y="189.69" width="1.93" height="71.49" transform="translate(-100.76 350.1) rotate(-90)"/>
      <path class="cls-10" d="M138.52,211.06c-.63-.12-1.51-.98-1.33-1.74l10.25-.08.8,1.09c.15.2-.73.76-1.12.76l-8.6-.02Z"/>
      <path class="cls-15" d="M131.61,209.32c.43.23.69.27,1.12.02h.76c1.06.33.78,1.66-.3,1.72h-9.44c-1.1-.08-.96-1.34.12-1.51l2.63-.3,5.12.07Z"/>
      <polygon class="cls-2" points="135.61 209.33 136.12 209.33 137.19 209.32 138.63 210.02 138.52 211.06 133.19 211.06 133.48 209.34 135.61 209.33"/>
      <polygon class="cls-12" points="123.86 209.55 123.74 211.06 121.22 211.06 121.27 209.22 123.86 209.55"/>
      <path class="cls-2" d="M132.73,209.34c-.08.18-.52.6-.7.5l-.42-.52,1.12.02Z"/>
      <path class="cls-10" d="M135.61,209.33h.51c-.28.31-.35.31-.51,0Z"/>
    </g>
  </g>
</svg>
